<?xml version="1.0" encoding="utf-8"?>
<!-- Generator: Adobe Illustrator 23.0.1, SVG Export Plug-In . SVG Version: 6.00 Build 0)  -->
<svg version="1.1" id="katman_1" xmlns="http://www.w3.org/2000/svg" xmlns:xlink="http://www.w3.org/1999/xlink" x="0px" y="0px"
	 viewBox="0 0 419 136" style="enable-background:new 0 0 419 136;" xml:space="preserve">
<style type="text/css">
	.st0{fill:#2F717C;}
</style>
<polygon class="st0" points="220.17,110.06 203.07,110.06 178.88,84.77 178.88,110.06 165.46,110.06 165.46,24.11 178.88,24.11 
	178.88,73.63 202.4,49.21 219.36,49.21 191.43,79.52 "/>
<path class="st0" d="M229.49,36.45c-1.68-1.64-2.52-3.61-2.52-5.99c0-2.45,0.81-4.48,2.45-6.06c1.64-1.58,3.68-2.38,6.06-2.38
	c4.9,0,8.58,3.48,8.58,8.44c0,2.38-0.81,4.38-2.45,5.99c-1.64,1.64-3.68,2.45-6.13,2.45C233.1,38.9,231.1,38.09,229.49,36.45
	 M228.78,49.21h13.42v60.83h-13.42V49.21z"/>
<polygon class="st0" points="292.19,49.21 292.19,61.35 279.19,61.35 279.19,110.06 265.77,110.06 265.77,61.35 253.45,61.35 
	253.45,49.21 265.77,49.21 265.77,34.13 279.19,31.26 279.19,49.21 "/>
<path class="st0" d="M347.86,49.21h13.42v60.83h-13.42v-9.41c-5.32,7.22-12.42,10.82-21.35,10.89c-8.58,0-15.74-3.03-21.42-9.15
	c-5.71-6.12-8.58-13.69-8.58-22.78c0-9.02,2.87-16.59,8.58-22.71c5.64-6.06,12.84-9.09,21.42-9.09c8.93,0,16.03,3.61,21.35,10.82
	C347.86,58.61,347.86,49.21,347.86,49.21z M342.51,93.15c3.55-3.61,5.35-8.15,5.35-13.56s-1.81-9.89-5.35-13.53
	c-3.55-3.61-8.06-5.41-13.35-5.41c-5.42,0-9.9,1.8-13.48,5.41c-3.61,3.61-5.42,8.09-5.42,13.53c0,5.44,1.81,9.95,5.42,13.56
	c3.55,3.61,8.06,5.41,13.48,5.41C334.44,98.56,338.93,96.76,342.51,93.15"/>
<path class="st0" d="M379.5,105.84c-4.1-3.74-6.13-8.28-6.13-13.69h13.58c0,2.16,0.81,3.96,2.39,5.48s3.55,2.29,5.84,2.29
	c2.16,0,3.97-0.64,5.55-1.87c1.52-1.22,2.29-2.8,2.29-4.61c0-3.8-3.61-6.64-10.81-8.57c-12.03-3.03-18.03-9.28-18.03-18.75
	c0-5.64,2-10.08,6-13.4c3.97-3.32,8.87-4.96,14.64-4.96c6,0,10.97,1.8,15,5.35c3.97,3.54,5.93,7.93,5.93,13.11h-13.64
	c0-3.8-3.03-6.89-7.42-6.89c-3.77,0-6.93,2.61-6.93,5.96c0,3.8,3.68,6.64,11.03,8.44c11.84,3.03,17.8,9.21,17.8,18.52
	c0,5.9-2.03,10.6-6.13,14.05c-4.13,3.45-9.29,5.19-15.39,5.19C388.79,111.51,383.6,109.64,379.5,105.84"/>
<path class="st0" d="M67.9,86.8c4.64,0,9-2.48,11.39-6.6c2.39-4.03,2.39-9.09,0-13.24c-2.39-4.03-6.71-6.6-11.39-6.6
	c-4.74,0-9.1,2.58-11.48,6.6c-2.39,4.12-2.39,9.18,0,13.24C58.8,84.32,63.15,86.8,67.9,86.8"/>
<path class="st0" d="M46.45,102.43L46.45,102.43l-11.9,22.52c9.77,5.73,21.19,9.05,33.35,9.05s23.55-3.29,33.32-9.02l-12.22-23.26
	l0,0c-3.1-5.93-9.26-9.99-16.42-9.99h-9.42C55.7,91.73,49.35,96.11,46.45,102.43 M66.61,129.75c-7.42-0.87-14.8-1.71-22.22-2.58
	c-0.26-0.03-0.48-0.1-0.87-0.19c0.65-1.13,1.26-2.22,1.9-3.38c5.42,1.51,10.81,3,16.19,4.51c0.03-0.1,0.06-0.16,0.06-0.26
	c-6-2.06-12.03-4.09-18.19-6.19c0.68-1.06,1.29-1.97,1.94-2.96c6.16,3.06,12.19,6.09,18.26,9.12c0.03-0.1,0.1-0.16,0.13-0.26
	c-6.93-3.77-13.9-7.57-20.97-11.4c2.42-3.7,4.77-7.31,7.13-10.92l0,0l1.77-2.71l10.03,6.06c0.23,0.13,0.42,0.26,0.65,0.39
	c1.1,0.68,2.19,1.32,3.26,2c0.45,0.26,0.87,0.9,0.9,1.42c0.29,3.64,0.48,7.31,0.71,10.95c0.1,1.77,0.23,3.58,0.32,5.35
	C67.73,129.43,67.48,129.84,66.61,129.75 M71.38,128.01c6.19-3.09,12.39-6.19,18.68-9.34c0.65,0.97,1.26,1.9,1.94,2.96
	c-5.9,2-11.68,3.99-17.48,5.96c0.03,0.1,0.06,0.19,0.1,0.29c5.1-1.42,10.22-2.84,15.45-4.28c0.65,1.1,1.26,2.22,1.97,3.45
	c-2.9,0.35-5.61,0.68-8.32,1c-4.1,0.52-8.16,1.19-12.29,1.45c-4.13,0.29-3.61,1.22-3.42-2.84c0.19-4.74,0.48-9.47,0.77-14.21
	c0.03-0.45,0.32-1.1,0.71-1.32c1.16-0.71,2.35-1.45,3.55-2.16c0.42-0.26,0.84-0.48,1.23-0.74l9.51-5.73l1.81,2.8l0,0
	c2.32,3.58,4.68,7.15,7.06,10.82c-7.19,3.9-14.29,7.8-21.38,11.66C71.28,127.85,71.35,127.94,71.38,128.01"/>
<path class="st0" d="M67.9,2.36C31.51,2.36,2,31.84,2,68.18c0,20.07,9,38.08,23.19,50.13l16.03-18.85
	c-8.84-7.54-14.48-18.75-14.48-31.28c0-22.68,18.42-41.11,41.16-41.11c22.71,0,41.16,18.4,41.16,41.11
	c0,12.56-5.64,23.78-14.51,31.31l16.03,18.85c14.22-12.08,23.22-30.06,23.22-50.16C133.79,31.84,104.31,2.36,67.9,2.36"/>
</svg>
